<svg width="40" height="17" viewBox="0 0 69 38" fill="none" xmlns="http://www.w3.org/2000/svg">
<path fill-rule="evenodd" clip-rule="evenodd" d="M21.155 32.4751H5.724C5.17833 32.4751 4.73599 32.0327 4.73599 31.4871C4.73599 30.9414 5.17833 30.499 5.724 30.499H21.155C21.7007 30.499 22.143 30.9414 22.143 31.4871C22.143 32.0327 21.7007 32.4751 21.155 32.4751V32.4751Z" fill="#B3BDCC"/>
<path fill-rule="evenodd" clip-rule="evenodd" d="M4.28799 37.0559C3.97485 37.0557 3.68039 36.907 3.49413 36.6553C3.30786 36.4036 3.2518 36.0786 3.34299 35.7788L7.58299 21.9338C7.68207 21.5913 7.95819 21.3286 8.30544 21.2466C8.65266 21.1648 9.01706 21.2766 9.25877 21.5388C9.50049 21.8013 9.58199 22.1736 9.47198 22.5129L5.23199 36.3579C5.10468 36.7727 4.72177 37.0557 4.28799 37.0559V37.0559Z" fill="#B59385"/>
<path fill-rule="evenodd" clip-rule="evenodd" d="M22.557 37.0549C22.1227 37.0544 21.7396 36.7705 21.613 36.355L17.373 22.51C17.2232 21.9917 17.5168 21.449 18.0326 21.291C18.5484 21.1328 19.0956 21.4177 19.262 21.9309L23.501 35.7769C23.5922 36.0767 23.5361 36.4016 23.3499 36.6533C23.1636 36.905 22.8691 37.0537 22.556 37.054L22.557 37.0549Z" fill="#B59385"/>
<path fill-rule="evenodd" clip-rule="evenodd" d="M8.51099 14.8999L7.51099 3.46411C7.34564 1.58398 5.77123 0.141968 3.88399 0.141968H2.95299C2.36183 0.142334 1.79791 0.390625 1.39865 0.82666C0.999374 1.26257 0.801422 1.84607 0.852997 2.43506L2.24399 18.271C2.5369 21.6096 5.33257 24.1709 8.68399 24.1709H22.154C23.2762 24.1709 24.186 23.2612 24.186 22.1389V21.6389C24.186 19.4128 22.3813 17.6079 20.155 17.6079H11.465C9.92722 17.6077 8.64476 16.4319 8.51099 14.8999V14.8999Z" fill="#78D7A8"/>
<path fill-rule="evenodd" clip-rule="evenodd" d="M3.23799 0.140991H2.95299C2.36183 0.141235 1.79791 0.389648 1.39865 0.825562C0.999374 1.2616 0.801422 1.84509 0.852997 2.43396L2.24399 18.271C2.5369 21.6096 5.33257 24.1709 8.68399 24.1709H17.101C5.674 22.3721 4.60899 18.512 3.23799 0.140991V0.140991Z" fill="#69BF96"/>
<path fill-rule="evenodd" clip-rule="evenodd" d="M63.405 32.4751H47.974C47.4283 32.4751 46.986 32.0327 46.986 31.4871C46.986 30.9414 47.4283 30.499 47.974 30.499H63.405C63.9507 30.499 64.393 30.9414 64.393 31.4871C64.393 32.0327 63.9507 32.4751 63.405 32.4751V32.4751Z" fill="#B3BDCC"/>
<path fill-rule="evenodd" clip-rule="evenodd" d="M64.841 37.0549C64.4066 37.0544 64.0235 36.7705 63.8969 36.355L59.657 22.51C59.507 21.9917 59.8007 21.449 60.3165 21.2908C60.8324 21.1326 61.3798 21.4177 61.546 21.9309L65.786 35.7769C65.8772 36.0767 65.8211 36.4016 65.6348 36.6533C65.4486 36.905 65.1541 37.0537 64.841 37.054V37.0549Z" fill="#B59385"/>
<path fill-rule="evenodd" clip-rule="evenodd" d="M46.572 37.0559C46.2589 37.0557 45.9644 36.907 45.7781 36.6553C45.5919 36.4036 45.5358 36.0786 45.627 35.7788L49.867 21.9338C50.0332 21.4207 50.5806 21.1357 51.0965 21.2937C51.6123 21.4519 51.9059 21.9946 51.756 22.5129L47.516 36.3579C47.3887 36.7727 47.0058 37.0557 46.572 37.0559V37.0559Z" fill="#B59385"/>
<path fill-rule="evenodd" clip-rule="evenodd" d="M60.617 14.8999L61.617 3.46411C61.7823 1.58398 63.3568 0.141968 65.244 0.141968H66.172C66.7632 0.142334 67.3271 0.390625 67.7264 0.82666C68.1256 1.26257 68.3236 1.84607 68.272 2.43506L66.882 18.272C66.5891 21.6106 63.7935 24.1719 60.442 24.1721H46.972C45.8498 24.1721 44.94 23.2622 44.94 22.1399L44.94 21.6401C44.94 19.4138 46.7448 17.6089 48.971 17.6089H57.659C59.1987 17.6106 60.4836 16.4338 60.617 14.8999V14.8999Z" fill="#799EE5"/>
<path fill-rule="evenodd" clip-rule="evenodd" d="M61.101 9.38208L60.617 14.9001C60.4827 16.4319 59.1998 17.6072 57.662 17.6069H48.974C46.7478 17.6069 44.943 19.4119 44.943 21.6382V22.1382C44.943 23.2603 45.8528 24.1702 46.975 24.1699L60.447 24.1702C62.4738 24.1709 64.3835 23.2205 65.605 21.603C62.996 19.9631 61.553 15.179 61.101 9.38208V9.38208Z" fill="#6E8FD1"/>
<rect x="32.03" y="11.4419" width="5.068" height="20.563" fill="#B3BDCC"/>
<rect x="32.03" y="11.4419" width="5.068" height="4.422" fill="#A8B2BF"/>
<path fill-rule="evenodd" clip-rule="evenodd" d="M38.746 32.0039H30.387C29.1822 32.0044 28.1296 32.8181 27.826 33.9839L27.587 34.9021C27.5142 35.1809 27.5747 35.4775 27.7508 35.7056C27.927 35.9336 28.1989 36.0671 28.487 36.0671H40.649C40.9371 36.0671 41.209 35.9336 41.3851 35.7056C41.5613 35.4775 41.6218 35.1809 41.549 34.9021L41.31 33.9841C41.0064 32.8169 39.952 32.0024 38.746 32.0039Z" fill="#414C59"/>
<path fill-rule="evenodd" clip-rule="evenodd" d="M48.485 6.92993H20.646C18.946 6.92993 17.4803 8.12476 17.138 9.79004V9.79004C17.0547 10.1946 17.1579 10.615 17.4188 10.9353C17.6798 11.2554 18.071 11.4412 18.484 11.4409H50.646C51.059 11.4412 51.4502 11.2554 51.7112 10.9353C51.9721 10.615 52.0753 10.1946 51.992 9.79004H51.992C51.6498 8.12524 50.1846 6.93042 48.485 6.92993H48.485Z" fill="#F4E08F"/>
<path fill-rule="evenodd" clip-rule="evenodd" d="M38.986 11.4409C36.326 10.2581 35.697 8.14087 36.049 6.92993H20.646C18.946 6.92993 17.4803 8.12476 17.138 9.79004C17.0547 10.1946 17.1579 10.615 17.4189 10.9351C17.6798 11.2554 18.071 11.4409 18.484 11.4409H38.986V11.4409Z" fill="#EBCE72"/>
</svg>
