<svg width="20" height="20" viewBox="0 0 20 20" fill="none" xmlns="http://www.w3.org/2000/svg">
<path fill-rule="evenodd" clip-rule="evenodd" d="M0 37C0 26.7827 3.61235 18.0617 10.837 10.837C18.0617 3.61235 26.7827 0 37 0C47.2173 0 55.9382 3.61235 63.1629 10.837C70.3876 18.0617 74 26.7827 74 37C74 47.2173 70.3876 55.9382 63.1629 63.1629C55.9382 70.3876 47.2173 74 37 74C26.7827 74 18.0617 70.3876 10.837 63.1629C3.61235 55.9382 0 47.2173 0 37Z" fill="#E6C1B2"/>
<path fill-rule="evenodd" clip-rule="evenodd" d="M49.317 30.218H39.122L41.958 13.194L24.566 37.834H34.915L32.102 58.902L49.317 30.218ZM27.502 36.311L39.36 19.516L37.323 31.741H46.623L34.59 51.802L36.655 36.311H27.502Z" fill="black"/>
</svg>
