<svg width="74" height="74" viewBox="0 0 74 74" fill="none" xmlns="http://www.w3.org/2000/svg">
<path fill-rule="evenodd" clip-rule="evenodd" d="M0 37C0 26.7827 3.61235 18.0617 10.837 10.837C18.0617 3.61235 26.7827 0 37 0C47.2173 0 55.9382 3.61235 63.1629 10.837C70.3876 18.0617 74 26.7827 74 37C74 47.2173 70.3876 55.9382 63.1629 63.1629C55.9382 70.3876 47.2173 74 37 74C26.7827 74 18.0617 70.3876 10.837 63.1629C3.61235 55.9382 0 47.2173 0 37V37Z" fill="#E6C1B2"/>
<path fill-rule="evenodd" clip-rule="evenodd" d="M36.202 54.584C35.7373 54.584 35.2885 54.4152 34.939 54.109C33.619 52.955 32.346 51.87 31.223 50.909H31.217C28.3123 48.5928 25.5992 46.0463 23.104 43.2939C21.0905 41.1229 19.9382 38.292 19.863 35.332C19.819 32.7635 20.7444 30.2726 22.455 28.356C24.1341 26.5266 26.5089 25.493 28.992 25.511C30.8547 25.5029 32.6649 26.1277 34.126 27.283C34.9183 27.9025 35.6174 28.6326 36.202 29.451C36.7867 28.6327 37.4858 27.9026 38.278 27.283C39.7394 26.1275 41.55 25.5027 43.413 25.511C45.8961 25.4932 48.2708 26.5267 49.95 28.356C51.6606 30.2726 52.5861 32.7634 52.542 35.332C52.4667 38.2917 51.3143 41.1223 49.301 43.293C46.8059 46.0463 44.0928 48.5939 41.188 50.911C40.063 51.869 38.788 52.956 37.465 54.111C37.1153 54.4167 36.6665 54.5851 36.202 54.585V54.584ZM28.992 27.425C27.0442 27.41 25.181 28.2198 23.863 29.654C22.4789 31.2173 21.7341 33.2444 21.777 35.332C21.8503 37.8464 22.8471 40.2458 24.577 42.072C27.0043 44.737 29.6396 47.2048 32.458 49.452L32.464 49.452C33.591 50.413 34.864 51.502 36.199 52.664C37.537 51.499 38.817 50.408 39.946 49.446C42.764 47.199 45.399 44.7316 47.826 42.067C49.5559 40.2408 50.5526 37.8414 50.626 35.327C50.6689 33.2394 49.9241 31.2123 48.54 29.649C47.2216 28.2172 45.3593 27.4093 43.413 27.425C41.9744 27.42 40.5767 27.9037 39.449 28.797C38.5626 29.5068 37.8139 30.3731 37.24 31.353C37.0222 31.7189 36.6278 31.9431 36.202 31.9431C35.7762 31.9431 35.3818 31.7189 35.164 31.353C34.5903 30.373 33.8415 29.5067 32.955 28.797C31.8276 27.9039 30.4303 27.4202 28.992 27.425V27.425Z" fill="black"/>
</svg>
