<svg width="16" height="16" viewBox="0 0 46 46" fill="none" xmlns="http://www.w3.org/2000/svg">
<rect width="46" height="46" fill="#151515"/>
<path fill-rule="evenodd" clip-rule="evenodd" d="M36.036 17.6758C36.0149 16.5938 35.8096 15.5225 35.429 14.5088C34.7495 12.7554 33.3628 11.3687 31.609 10.689C30.5953 10.3091 29.5244 10.1035 28.442 10.082C27.045 10.0151 26.601 10 23.052 10C19.5031 10 19.068 10.0151 17.676 10.0771C16.5936 10.0977 15.5227 10.3027 14.509 10.6831C13.6357 11.0107 12.8451 11.5264 12.193 12.1929C11.532 12.8457 11.0203 13.6338 10.693 14.5029C10.3115 15.5166 10.105 16.5874 10.082 17.6699C10.016 19.0679 10.001 19.5122 10.001 23.0562C10.001 26.6001 10.016 27.0439 10.077 28.436C10.0985 29.5176 10.3037 30.5874 10.684 31.6001C11.3634 33.354 12.7501 34.7407 14.504 35.4199C15.5177 35.8003 16.5886 36.0054 17.671 36.0269C19.063 36.0879 19.507 36.104 23.051 36.104C26.595 36.104 27.0391 36.0889 28.431 36.0269C29.5134 36.0059 30.5845 35.8008 31.598 35.4199C33.3525 34.7417 34.7395 33.3545 35.418 31.6001C35.798 30.5864 36.0032 29.5156 36.025 28.4331C36.0861 27.041 36.1021 26.5972 36.1021 23.0532C36.1021 19.5088 36.097 19.0649 36.036 17.6729V17.6758ZM33.6851 28.334C33.6765 29.1611 33.5245 29.9805 33.236 30.7559C32.796 31.895 31.8958 32.7949 30.757 33.2349C29.9816 33.5229 29.1621 33.6748 28.335 33.6841C26.958 33.7451 26.545 33.7598 23.062 33.7598C19.579 33.7598 19.162 33.7451 17.7891 33.6841C16.9618 33.6753 16.1423 33.5234 15.3671 33.2349C14.8002 33.0273 14.2875 32.6943 13.8669 32.2612C13.4348 31.8398 13.1021 31.3271 12.8929 30.7612C12.605 29.9854 12.4531 29.166 12.444 28.3389C12.3831 26.9619 12.368 26.5488 12.368 23.0659C12.368 19.583 12.3831 19.166 12.444 17.793C12.452 16.9653 12.6036 16.1455 12.892 15.3701C13.0997 14.8018 13.4346 14.2891 13.871 13.8701C14.2922 13.4375 14.8047 13.105 15.371 12.896C16.1465 12.6079 16.9658 12.4561 17.793 12.4468C19.17 12.3862 19.583 12.3711 23.066 12.3711C26.549 12.3711 26.9659 12.3862 28.339 12.4468C29.1663 12.4556 29.9857 12.6074 30.761 12.896C31.3279 13.1035 31.8406 13.4365 32.261 13.8701C32.6932 14.2915 33.0259 14.8037 33.235 15.3701C33.5229 16.1455 33.6749 16.9648 33.684 17.792C33.745 19.1689 33.76 19.582 33.76 23.0649C33.76 26.5479 33.745 26.9561 33.684 28.333L33.6851 28.334Z" fill="white"/>
<path fill-rule="evenodd" clip-rule="evenodd" d="M23.056 16.3501C20.3436 16.3501 17.8984 17.9839 16.8605 20.4897C15.8225 22.9956 16.3962 25.8799 18.3141 27.7979C20.2321 29.7158 23.1165 30.2895 25.6223 29.2515C28.1282 28.2139 29.762 25.7686 29.762 23.0562C29.7603 19.3516 26.7579 16.3506 23.0547 16.3501H23.056ZM23.056 27.4072C20.6536 27.4072 18.7061 25.4595 18.7061 23.0571C18.7061 20.6548 20.6536 18.707 23.056 18.707C25.4585 18.707 27.406 20.6548 27.406 23.0571C27.4048 25.4604 25.457 27.4072 23.0549 27.4072H23.056Z" fill="white"/>
<path fill-rule="evenodd" clip-rule="evenodd" d="M31.593 16.084C31.593 16.9487 30.8918 17.6499 30.027 17.6499C29.1621 17.6499 28.4609 16.9487 28.4609 16.084C28.4609 15.2192 29.1621 14.5181 30.027 14.5181C30.8918 14.5181 31.593 15.2192 31.593 16.084Z" fill="white"/>
</svg>
