<svg width="16" height="16" viewBox="0 0 46 46" fill="none" xmlns="http://www.w3.org/2000/svg">
<rect width="46" height="46" fill="#151515"/>
<path fill-rule="evenodd" clip-rule="evenodd" d="M34.4829 34.6396H34.489V25.874C34.489 21.585 33.5659 18.2817 28.552 18.2817C26.6334 18.2095 24.8311 19.2002 23.864 20.8589H23.7939V18.6826H19.04V34.6387H23.99V26.7388C23.99 24.6577 24.384 22.647 26.9609 22.647C29.5 22.647 29.538 25.021 29.538 26.873V34.6416L34.4829 34.6396Z" fill="white"/>
<path fill-rule="evenodd" clip-rule="evenodd" d="M10.9869 18.6787H15.9429V34.6367H10.9869V18.6787Z" fill="white"/>
<path fill-rule="evenodd" clip-rule="evenodd" d="M13.4609 10.7378C12.292 10.7319 11.2351 11.4326 10.7852 12.5117C10.3352 13.5908 10.5811 14.8345 11.4077 15.6611C12.2343 16.4878 13.4781 16.7334 14.5571 16.2837C15.636 15.8335 16.3365 14.7769 16.3309 13.6079C16.3304 12.0229 15.0458 10.7383 13.4609 10.7378Z" fill="white"/>
</svg>
