<svg width="18" height="18" viewBox="0 0 37 35" fill="none" xmlns="http://www.w3.org/2000/svg">
<path fill-rule="evenodd" clip-rule="evenodd" d="M34.8229 12.967L23.7229 11.938L19.3169 1.70093C19.1768 1.37427 18.8554 1.1626 18.4999 1.1626C18.1444 1.1626 17.8231 1.37427 17.6829 1.70093L13.2749 11.938L2.17688 12.967C1.82373 13.001 1.52466 13.2419 1.41595 13.5796C1.30731 13.9175 1.40985 14.2874 1.67688 14.521L10.0459 21.877L7.59491 32.75C7.51648 33.0967 7.65204 33.4568 7.93958 33.6655C8.22717 33.8745 8.61151 33.8918 8.91687 33.71L18.4999 28.02L28.0829 33.71C28.3882 33.8918 28.7726 33.8745 29.0602 33.6655C29.3478 33.4568 29.4833 33.0967 29.4049 32.75L26.9549 21.877L35.3279 14.521C35.5953 14.2866 35.6975 13.9158 35.5875 13.5776C35.4777 13.2395 35.1769 12.9993 34.8229 12.967V12.967Z" stroke="#025F44" stroke-width="1.514"/>
<path fill-rule="evenodd" clip-rule="evenodd" d="M19.3169 1.70093C19.1768 1.37427 18.8554 1.1626 18.4999 1.1626C18.1444 1.1626 17.8231 1.37427 17.6829 1.70093L13.2749 11.938L2.17688 12.967C1.82373 13.001 1.52466 13.2419 1.41595 13.5796C1.30731 13.9175 1.40985 14.2874 1.67688 14.521L10.0459 21.877L7.59491 32.75C7.51648 33.0967 7.65204 33.4568 7.93958 33.6655C8.22717 33.8745 8.61151 33.8918 8.91687 33.71L11.0559 32.4399C11.2952 22.8955 15.0075 13.7661 21.4969 6.76294L19.3169 1.70093Z" fill="#025F44"/>
</svg>
