<svg width="18" height="18" viewBox="0 0 35 33" fill="none" xmlns="http://www.w3.org/2000/svg">
<path fill-rule="evenodd" clip-rule="evenodd" d="M33.8229 11.967L22.7229 10.938L18.3169 0.700928C18.1768 0.374268 17.8554 0.162598 17.4999 0.162598C17.1444 0.162598 16.8231 0.374268 16.6829 0.700928L12.2749 10.938L1.17691 11.967C0.82373 12.001 0.524628 12.2419 0.415955 12.5796C0.307281 12.9175 0.409851 13.2874 0.67691 13.521L9.0459 20.877L6.59491 31.75C6.51645 32.0967 6.65201 32.4568 6.93961 32.6655C7.2272 32.8745 7.61154 32.8918 7.9169 32.71L17.4999 27.02L27.0829 32.71C27.3882 32.8918 27.7726 32.8745 28.0602 32.6655C28.3478 32.4568 28.4833 32.0967 28.4049 31.75L25.9549 20.877L34.3279 13.521C34.5953 13.2866 34.6974 12.9158 34.5876 12.5776C34.4777 12.2395 34.1769 11.9993 33.8229 11.967Z" fill="#025F44"/>
<path fill-rule="evenodd" clip-rule="evenodd" d="M18.3169 0.700928C18.1768 0.374268 17.8554 0.162598 17.4999 0.162598C17.1444 0.162598 16.8231 0.374268 16.6829 0.700928L12.2749 10.938L1.17691 11.967C0.82373 12.001 0.524628 12.2419 0.415955 12.5796C0.307281 12.9175 0.409851 13.2874 0.67691 13.521L9.0459 20.877L6.59491 31.75C6.51645 32.0967 6.65201 32.4568 6.93961 32.6655C7.2272 32.8745 7.61154 32.8918 7.9169 32.71L10.0559 31.4399C10.2952 21.8955 14.0075 12.7661 20.4969 5.76294L18.3169 0.700928Z" fill="#025F44"/>
</svg>
