<svg width="15" height="15" viewBox="0 0 35 33" fill="none" xmlns="http://www.w3.org/2000/svg">
<path fill-rule="evenodd" clip-rule="evenodd" d="M33.823 11.9668L22.723 10.938L18.317 0.701172C18.1769 0.374512 17.8556 0.162598 17.5 0.162598C17.1445 0.162598 16.8231 0.374512 16.683 0.701172L12.275 10.938L1.177 11.9668C0.823853 12.001 0.52478 12.2417 0.416138 12.5796C0.307373 12.9175 0.410034 13.2876 0.677002 13.521L9.04602 20.877L6.59497 31.75C6.5166 32.0967 6.6521 32.4565 6.9397 32.6655C7.2273 32.8745 7.61169 32.8921 7.91699 32.71L17.5 27.02L27.083 32.71C27.3884 32.8921 27.7727 32.8745 28.0603 32.6655C28.3479 32.4565 28.4835 32.0967 28.405 31.75L25.9551 20.877L34.328 13.521C34.5955 13.2866 34.6975 12.9155 34.5876 12.5776C34.4778 12.2393 34.177 11.9995 33.823 11.9668Z" fill="#FFDC64"/>
<path fill-rule="evenodd" clip-rule="evenodd" d="M18.317 0.701172C18.1769 0.374512 17.8556 0.162598 17.5 0.162598C17.1445 0.162598 16.8231 0.374512 16.683 0.701172L12.275 10.938L1.177 11.9668C0.823853 12.001 0.52478 12.2417 0.416138 12.5796C0.307373 12.9175 0.410034 13.2876 0.677002 13.521L9.04602 20.877L6.59497 31.75C6.5166 32.0967 6.6521 32.4565 6.9397 32.6655C7.22729 32.8745 7.61169 32.8921 7.91699 32.71L10.056 31.4399C10.2953 21.8955 14.0077 12.7661 20.4969 5.76318L18.317 0.701172Z" fill="#FFC850"/>
</svg>
