<svg width="20" height="20" viewBox="0 0 74 74" fill="none" xmlns="http://www.w3.org/2000/svg">
<path fill-rule="evenodd" clip-rule="evenodd" d="M0 37C0 26.7827 3.61235 18.0617 10.837 10.837C18.0617 3.61235 26.7827 0 37 0C47.2173 0 55.9382 3.61235 63.1629 10.837C70.3876 18.0617 74 26.7827 74 37C74 47.2173 70.3876 55.9382 63.1629 63.1629C55.9382 70.3876 47.2173 74 37 74C26.7827 74 18.0617 70.3876 10.837 63.1629C3.61235 55.9382 0 47.2173 0 37Z" fill="#E6C1B2"/>
<path fill-rule="evenodd" clip-rule="evenodd" d="M52.52 35.676C54.3022 34.4277 55.0691 32.1677 54.4146 30.0925C53.7601 28.0173 51.8355 26.6062 49.6595 26.6062C47.4835 26.6062 45.5588 28.0173 44.9044 30.0925C44.2499 32.1677 45.0167 34.4277 46.799 35.676C45.7114 36.0502 44.7095 36.6376 43.8521 37.4041C42.6713 36.3981 41.2941 35.6489 39.808 35.204C42.2352 33.7377 43.3878 30.8334 42.6267 28.1017C41.8656 25.3699 39.3773 23.4802 36.5415 23.4801C33.7057 23.4801 31.2174 25.3699 30.4563 28.1017C29.6952 30.8334 30.8478 33.7376 33.275 35.204C31.8074 35.6503 30.4463 36.3914 29.275 37.382C28.4238 36.6332 27.4347 36.0578 26.363 35.688C28.1453 34.4396 28.9121 32.1797 28.2576 30.1045C27.6031 28.0293 25.6785 26.6182 23.5024 26.6182C21.3265 26.6182 19.4019 28.0293 18.7474 30.1045C18.0929 32.1797 18.8597 34.4396 20.642 35.688C17.1154 36.9053 14.7479 40.2242 14.745 43.955V44.525C14.746 44.5439 14.7611 44.559 14.78 44.5601H25.345C25.281 45.0444 25.2476 45.5324 25.245 46.0211V46.609C25.245 49.1495 27.3044 51.209 29.845 51.209H43.245C45.7855 51.209 47.845 49.1495 47.845 46.609V46.023C47.8424 45.5345 47.8091 45.0466 47.745 44.5622L58.3879 44.562C58.4069 44.561 58.422 44.5459 58.423 44.527V43.957C58.4148 40.2228 56.0474 36.9017 52.52 35.676ZM46.056 31.588C46.056 29.6101 47.6528 28.0024 49.6315 27.9888C51.61 27.9753 53.2286 29.5612 53.2556 31.5396C53.2827 33.5181 51.708 35.1475 49.7297 35.188L49.5909 35.188C47.6278 35.1531 46.0547 33.5515 46.0551 31.588H46.056ZM31.589 29.788C31.589 27.0987 33.7411 24.9048 36.4292 24.8531C39.1173 24.8015 41.3521 26.9111 41.4553 29.5977C41.5586 32.2843 39.4923 34.5592 36.8082 34.714H36.239C33.6309 34.5602 31.593 32.4028 31.588 29.79L31.589 29.788ZM19.87 31.588C19.87 29.6101 21.4668 28.0024 23.4454 27.9888C25.424 27.9753 27.0426 29.5612 27.0697 31.5396C27.0967 33.5181 25.522 35.1475 23.5437 35.188L23.4041 35.188C21.4417 35.152 19.8696 33.5508 19.87 31.588ZM25.5909 43.168H16.145C16.5458 39.4418 19.6744 36.6069 23.422 36.574H23.522C25.25 36.5834 26.9188 37.2048 28.2321 38.328C26.9672 39.6997 26.0601 41.3621 25.5909 43.168ZM46.444 46.608C46.4412 48.3826 45.0034 49.8203 43.2289 49.823H29.829C28.0546 49.8203 26.6167 48.3825 26.614 46.608V46.023C26.6199 40.6638 30.8776 36.2769 36.2336 36.111C36.333 36.12 36.433 36.12 36.527 36.12C36.621 36.12 36.7271 36.12 36.821 36.111C42.1791 36.2747 46.4395 40.6625 46.4449 46.023L46.444 46.608ZM47.472 43.168C47.0052 41.3762 46.106 39.7263 44.853 38.363C46.1741 37.2203 47.8593 36.586 49.606 36.574H49.7061C53.4536 36.6068 56.5822 39.4418 56.983 43.168H47.472Z" fill="black"/>
</svg>
