<svg width="13" height="14" viewBox="0 0 30 30" fill="none" xmlns="http://www.w3.org/2000/svg">
<path fill-rule="evenodd" clip-rule="evenodd" d="M28.626 13.879C28.3278 13.8776 28.0414 13.9951 27.8301 14.2055C27.6188 14.4159 27.5 14.7018 27.5 14.9999C27.4982 20.1134 24.4187 24.7184 19.6977 26.6715C14.9766 28.6247 9.54388 27.5414 5.93301 23.9269C2.32213 20.3124 1.24434 14.8785 3.20227 10.1595C5.1602 5.4404 9.7682 2.36557 14.8773 2.36896C15.2779 2.36832 15.6477 2.15399 15.8474 1.8067C16.0471 1.45944 16.0462 1.03198 15.8452 0.685486C15.6443 0.338959 15.2736 0.126038 14.873 0.126953C6.65903 0.127472 0.00062561 6.78656 0.000976562 15.0006C0.00131226 23.2146 6.66028 29.8731 14.8743 29.873C23.0883 29.8728 29.747 23.214 29.747 14.9999C29.747 14.3808 29.2451 13.879 28.626 13.879Z" fill="black"/>
<path fill-rule="evenodd" clip-rule="evenodd" d="M28.895 4.19391C28.4572 3.75635 27.7477 3.75635 27.3099 4.19391L13.86 17.6079L9.00696 12.3379C8.58745 11.8826 7.87834 11.8535 7.42284 12.2727C6.96733 12.692 6.93781 13.4011 7.35689 13.8568L13 19.9849C13.2064 20.2091 13.4953 20.3394 13.8 20.3459H13.824C14.1205 20.3457 14.4049 20.2281 14.615 20.0189L28.895 5.77893C29.3325 5.34119 29.3325 4.63165 28.895 4.19391Z" fill="black"/>
</svg>
