<svg width="16" height="16" viewBox="0 0 46 46" fill="none" xmlns="http://www.w3.org/2000/svg">
<rect width="46" height="46" fill="#151515"/>
<path fill-rule="evenodd" clip-rule="evenodd" d="M32.5341 17.8628C33.5043 17.1685 34.34 16.3032 35 15.3091C34.0972 15.7026 33.1423 15.9644 32.165 16.0859C33.1952 15.4746 33.9656 14.5068 34.33 13.3662C33.3654 13.938 32.3102 14.3408 31.21 14.5571C29.8295 13.084 27.689 12.6035 25.8113 13.3457C23.9337 14.0879 22.7001 15.9019 22.7 17.9209C22.6962 18.2983 22.7344 18.6743 22.814 19.043C18.8546 18.8486 15.1656 16.9766 12.671 13.896C11.3557 16.1426 12.0186 19.0254 14.183 20.4722C13.4042 20.4512 12.6417 20.2432 11.96 19.8662V19.9199C11.9625 22.2617 13.6075 24.2803 15.9003 24.7549C15.4792 24.8662 15.0454 24.9209 14.61 24.917C14.2976 24.9224 13.9854 24.8945 13.679 24.833C14.3313 26.835 16.1743 28.208 18.2791 28.2612C16.5376 29.623 14.3899 30.3623 12.179 30.3608C11.7849 30.3628 11.3911 30.3398 11 30.292C13.25 31.7417 15.8716 32.5083 18.548 32.5C22.38 32.5269 26.0532 30.9712 28.7007 28.2007C31.348 25.4302 32.735 21.6899 32.5341 17.8628Z" fill="white"/>
</svg>
